<svg width="24" height="25" viewBox="0 0 24 25" fill="none" xmlns="http://www.w3.org/2000/svg">
<path d="M21.0142 20.4078L15.7032 15.0922C16.6782 13.8734 17.2642 12.3219 17.2642 10.6344C17.2642 6.69219 14.072 3.5 10.1392 3.5C6.20166 3.5 3.01416 6.69687 3.01416 10.6344C3.01416 14.5719 6.20635 17.7687 10.1392 17.7687C11.836 17.7687 13.3923 17.1734 14.6157 16.1844L19.922 21.5L21.0142 20.4078ZM5.62979 15.1531C4.4251 13.9484 3.76416 12.3453 3.76416 10.6391C3.76416 8.93281 4.42978 7.32969 5.62979 6.125C6.82978 4.92031 8.4376 4.25 10.1392 4.25C11.8407 4.25 13.4438 4.91563 14.6485 6.12031C15.8532 7.325 16.5142 8.92812 16.5142 10.6344C16.5142 12.3406 15.8485 13.9438 14.6485 15.1484C13.4438 16.3531 11.8407 17.0187 10.1392 17.0187C8.4376 17.0234 6.83447 16.3578 5.62979 15.1531Z" fill="#696969"/>
</svg>
