<svg width="27" height="21" viewBox="0 0 27 21" fill="none" xmlns="http://www.w3.org/2000/svg">
<path d="M25.3125 0.9375H1.6875C1.23995 0.9375 0.810725 1.11529 0.494257 1.43176C0.17779 1.74822 0 2.17745 0 2.625L0 18.375C0 18.8226 0.17779 19.2518 0.494257 19.5682C0.810725 19.8847 1.23995 20.0625 1.6875 20.0625H25.3125C25.7601 20.0625 26.1893 19.8847 26.5057 19.5682C26.8222 19.2518 27 18.8226 27 18.375V2.625C27 2.17745 26.8222 1.74822 26.5057 1.43176C26.1893 1.11529 25.7601 0.9375 25.3125 0.9375ZM24.9525 2.0625L13.5 10.9163L2.0475 2.0625H24.9525ZM1.125 18.1444V2.77125L9.79313 9.47062L1.125 18.1444ZM1.91813 18.9375L10.6875 10.1681L13.1512 12.075C13.2496 12.1507 13.3702 12.1918 13.4944 12.1918C13.6185 12.1918 13.7391 12.1507 13.8375 12.075L16.3125 10.1681L25.0819 18.9375H1.91813ZM25.875 18.1444L17.2069 9.47062L25.875 2.77125V18.1444Z" fill="#D9D9D9"/>
</svg>
