<svg width="35" height="36" viewBox="0 0 35 36" fill="none" xmlns="http://www.w3.org/2000/svg">
<path d="M30.0737 0.5H4.92625C3.61974 0.5 2.36672 1.01901 1.44287 1.94286C0.519014 2.86673 0 4.11973 0 5.42626V30.5737C0 31.8803 0.519014 33.1333 1.44287 34.0571C2.36672 34.9809 3.61974 35.5 4.92625 35.5H16.3713V22.725H12.0444V17.7419H16.3713V14.0713C16.3713 11.9909 16.9466 10.3744 18.0972 9.22595C19.2478 8.07532 20.8075 7.49782 22.7784 7.49782C24.7515 7.49782 26.0291 7.57438 26.6131 7.71876V12.155H23.9837C23.0344 12.155 22.3869 12.3563 22.039 12.7588C21.6934 13.1591 21.5206 13.7628 21.5206 14.5656V17.7419H26.4491L25.7928 22.725H21.5206V35.5H30.0737C31.3803 35.5 32.6333 34.9809 33.5571 34.0571C34.4811 33.1333 35 31.8803 35 30.5737V5.42626C35 4.11973 34.4811 2.86673 33.5571 1.94286C32.6333 1.01901 31.3803 0.5 30.0737 0.5Z" fill="black"/>
</svg>
