<svg width="35" height="36" viewBox="0 0 35 36" fill="none" xmlns="http://www.w3.org/2000/svg">
<path d="M17.4971 8.89697C12.5576 8.89697 8.46484 12.9191 8.46484 17.9292C8.46484 22.9393 12.487 26.9615 17.4971 26.9615C22.5072 26.9615 26.5294 22.8687 26.5294 17.9292C26.5294 12.9897 22.4366 8.89697 17.4971 8.89697ZM17.4971 23.7155C14.3217 23.7155 11.7108 21.1046 11.7108 17.9292C11.7108 14.7538 14.3217 12.1429 17.4971 12.1429C20.6725 12.1429 23.2834 14.7538 23.2834 17.9292C23.2834 21.1046 20.6725 23.7155 17.4971 23.7155Z" fill="black"/>
<path d="M26.8867 10.7307C28.0169 10.7307 28.9331 9.81449 28.9331 8.68431C28.9331 7.55413 28.0169 6.63794 26.8867 6.63794C25.7565 6.63794 24.8403 7.55413 24.8403 8.68431C24.8403 9.81449 25.7565 10.7307 26.8867 10.7307Z" fill="black"/>
<path d="M32.1774 3.39314C30.3427 1.4879 27.7318 0.5 24.7681 0.5H10.2319C4.09274 0.5 0 4.59274 0 10.7319V25.1976C0 28.2319 0.987903 30.8427 2.96371 32.748C4.86895 34.5827 7.40927 35.5 10.3024 35.5H24.6976C27.7319 35.5 30.2722 34.5121 32.1068 32.748C34.0121 30.9133 35 28.3024 35 25.2681V10.7319C35 7.76814 34.0121 5.22782 32.1774 3.39314ZM31.8952 25.2681C31.8952 27.4556 31.1189 29.2198 29.8488 30.4194C28.5786 31.619 26.8145 32.254 24.6976 32.254H10.3024C8.18548 32.254 6.42137 31.619 5.15121 30.4194C3.88105 29.1492 3.24597 27.3851 3.24597 25.1976V10.7319C3.24597 8.61492 3.88105 6.85081 5.15121 5.58065C6.35081 4.38105 8.18548 3.74597 10.3024 3.74597H24.8387C26.9556 3.74597 28.7198 4.38105 29.9899 5.65121C31.1895 6.92137 31.8952 8.68548 31.8952 10.7319V25.2681Z" fill="black"/>
</svg>
